<svg width="124" height="124" viewBox="0 0 124 124" fill="none" xmlns="http://www.w3.org/2000/svg">
<circle cx="62" cy="62" r="62" fill="url(#paint0_linear_3_2)"/>
<path d="M30.3037 47.1797L28.9414 46.5137C29.3047 44.2331 30.3743 42.7497 32.1504 42.0635C32.7155 41.8617 33.3109 41.7607 33.9365 41.7607C35.6722 41.7607 37.196 42.4167 38.5078 43.7285C39.8197 45.0202 40.4756 46.4733 40.4756 48.0879C40.4958 50.1868 40.0518 52.6087 39.1436 55.3535C36.9639 61.8724 33.109 68.2096 27.5791 74.3652L25.4902 76.5752C24.7031 77.2816 24.1683 77.6549 23.8857 77.6953C23.0179 77.6751 22.1803 76.8376 21.373 75.1826C21.6354 74.4359 22.9473 70.238 25.3086 62.5889C27.6901 54.9398 29.3551 49.8034 30.3037 47.1797ZM32.998 45.1514C32.998 46.8265 32.6751 48.7236 32.0293 50.8428C31.4036 52.9417 30.9495 54.4453 30.667 55.3535C30.4046 56.2415 29.6276 58.5827 28.3359 62.377C27.0645 66.1712 26.1159 69.3096 25.4902 71.792C27.0443 70.1572 28.568 68.1995 30.0615 65.9189C30.1423 65.7979 30.2129 65.6969 30.2734 65.6162C34.875 58.4919 37.1758 51.8014 37.1758 45.5449C37.1758 44.8385 36.984 44.4248 36.6006 44.3037C36.4795 44.2835 36.3584 44.2734 36.2373 44.2734C34.9658 44.2936 33.8861 44.5863 32.998 45.1514ZM52.4639 56.2314C49.2347 56.7764 46.4193 58.8955 44.0176 62.5889C41.6764 66.1813 40.4453 69.7334 40.3242 73.2451C44.946 67.1501 48.9925 61.4788 52.4639 56.2314ZM51.0713 53.6582L52.8574 53.9004C53.14 53.9004 53.4326 53.7389 53.7354 53.416C54.0583 53.0931 54.4619 52.9316 54.9463 52.9316C55.4508 52.9316 55.8444 53.0628 56.127 53.3252C56.4297 53.5876 56.5811 53.8197 56.5811 54.0215C56.5811 54.2031 56.4801 54.516 56.2783 54.96C56.0765 55.404 55.9554 55.6966 55.915 55.8379C53.2308 64.2539 51.8887 69.6224 51.8887 71.9434C51.9089 72.7507 52.0905 73.1644 52.4336 73.1846C53.6647 73.1846 55.5921 71.57 58.2158 68.3408C59.9717 66.1813 61.1019 64.597 61.6064 63.5879C62.1312 62.5788 62.5449 62.0439 62.8477 61.9834C62.9082 61.9834 62.9587 61.9733 62.999 61.9531C63.3623 61.9935 63.554 62.2054 63.5742 62.5889C63.5742 63.3154 62.7367 64.9502 61.0615 67.4932C57.4893 72.9424 54.4014 75.667 51.7979 75.667C49.9209 75.667 48.9824 74.3551 48.9824 71.7314C48.9824 70.4801 49.2347 68.9261 49.7393 67.0693C50.2438 65.1924 50.5465 64.0218 50.6475 63.5576C50.1833 64.1631 48.6292 66.363 45.9854 70.1572C43.3415 73.9515 41.4443 76.1917 40.2939 76.8779C39.9307 77.0798 39.6178 77.1908 39.3555 77.2109C38.2051 77.2109 37.3675 76.7568 36.8428 75.8486C36.6006 75.4046 36.4795 74.7689 36.4795 73.9414C36.4593 73.0938 37.0749 71.1562 38.3262 68.1289C40.3444 63.2448 42.6351 59.4808 45.1982 56.8369C47.2165 54.7783 49.1742 53.7188 51.0713 53.6582ZM71.415 54.8389C71.415 57.7653 70.6077 59.2689 68.9932 59.3496C68.5895 59.3496 68.2061 59.2487 67.8428 59.0469C68.0042 62.599 68.085 66.0602 68.085 69.4307C68.085 72.8011 67.4492 75.1927 66.1777 76.6055C65.4512 77.4128 64.5127 77.8164 63.3623 77.8164C62.2321 77.8366 61.3743 77.443 60.7891 76.6357C60.2038 75.8486 59.9111 75.0716 59.9111 74.3047C59.9515 73.3561 60.557 72.8717 61.7275 72.8516C62.4743 72.8516 62.7972 73.3662 62.6963 74.3955C62.5954 75.4248 62.8376 75.9395 63.4229 75.9395C64.5127 75.9395 65.1787 74.557 65.4209 71.792C65.542 70.5205 65.5924 68.7546 65.5723 66.4941C65.5723 64.2337 65.3906 63.0934 65.0273 63.0732C64.8659 63.0732 64.6439 63.3457 64.3613 63.8906C64.0788 64.4154 63.3926 65.5052 62.3027 67.1602C61.2331 68.8151 60.3047 70.0462 59.5176 70.8535C58.7305 71.6608 58.2158 72.1048 57.9736 72.1855C57.4085 72.3874 57.0856 72.2057 57.0049 71.6406C57.0251 71.0352 57.3379 70.3288 57.9434 69.5215C60.123 66.6354 62.222 63.3053 64.2402 59.5312C64.7044 58.6634 64.9365 58.1589 64.9365 58.0176V53.6582C64.9365 52.8307 65.3402 52.195 66.1475 51.751C66.4906 51.5693 66.8135 51.4785 67.1162 51.4785C68.3675 51.4987 69.528 51.8721 70.5977 52.5986C71.1022 52.9619 71.3646 53.3656 71.3848 53.8096C71.4049 54.2536 71.415 54.5967 71.415 54.8389ZM67.6006 56.8672C68.2868 56.7461 68.6803 56.514 68.7812 56.1709C68.9023 55.8076 68.9629 55.4544 68.9629 55.1113C68.9629 54.748 68.9427 54.4756 68.9023 54.2939C68.2969 54.2939 67.8831 54.7178 67.6611 55.5654C67.5804 55.848 67.54 56.1104 67.54 56.3525C67.54 56.5947 67.5602 56.7663 67.6006 56.8672ZM79.1045 58.0176C79.1247 57.9974 79.5081 57.5332 80.2549 56.625C81.0016 55.737 81.5264 55.1315 81.8291 54.8086L82.4043 54.2031C82.8079 53.8197 83.4134 53.638 84.2207 53.6582C85.028 53.6582 85.4518 54.0618 85.4922 54.8691C85.4922 55.0911 85.3509 55.5856 85.0684 56.3525C84.7858 57.1195 84.4023 58.5524 83.918 60.6514C82.707 65.7373 82.1016 69.8545 82.1016 73.0029C82.1016 74.2744 82.2832 74.9303 82.6465 74.9707C83.2721 74.9707 84.2409 74.1735 85.5527 72.5791C86.7435 71.1462 88.6204 67.8564 91.1836 62.71C91.5671 62.0439 92.0111 61.7109 92.5156 61.7109C92.778 61.7715 92.9294 61.9935 92.9697 62.377C92.9697 63.3861 92.6973 64.5768 92.1523 65.9492C91.123 68.5931 89.569 71.0755 87.4902 73.3965C85.4316 75.7174 83.7363 76.8779 82.4043 76.8779C80.4466 76.8577 79.4476 75.2533 79.4072 72.0645C79.4072 69.4408 79.8411 65.7171 80.709 60.8936C79.4173 61.3174 78.2568 62.3366 77.2275 63.9512C76.2184 65.5658 75.1689 67.9069 74.0791 70.9746C72.9489 74.1432 72.1719 75.9294 71.748 76.333C71.2637 76.6963 70.7288 76.8678 70.1436 76.8477C69.5381 76.8477 69.2253 76.6357 69.2051 76.2119C69.1849 75.7881 70.2243 72.7708 72.3232 67.1602C74.4222 61.5495 76.7936 55.7572 79.4375 49.7832C82.1016 43.8092 83.6253 39.8939 84.0088 38.0371C84.1501 37.472 84.6748 37.1794 85.583 37.1592C85.8857 37.1592 86.1885 37.1995 86.4912 37.2803C87.3389 37.5023 87.7627 37.8958 87.7627 38.4609C87.7627 38.6628 87.7021 38.8848 87.5811 39.127L87.1572 39.8535C85.6234 42.5781 82.9391 48.6328 79.1045 58.0176ZM103.596 51.2363C104.726 51.2363 105.321 51.5592 105.382 52.2051C105.382 52.4069 104.998 53.9408 104.231 56.8066C104.231 56.8066 103.757 58.512 102.809 61.9229C102.506 63.0732 102.112 64.9805 101.628 67.6445C101.164 70.2884 100.679 72.7103 100.175 74.9102C98.1566 83.6693 96.0273 89.8148 93.7871 93.3467C93.1211 94.3962 92.2936 95.4053 91.3047 96.374C89.1048 98.5537 87.0664 99.6436 85.1895 99.6436C84.3014 99.6436 83.8574 99.4316 83.8574 99.0078C83.8776 98.8464 84.1602 98.695 84.7051 98.5537C85.25 98.4326 85.8454 98.1904 86.4912 97.8271C88.3076 96.7373 89.6901 95.2438 90.6387 93.3467C94.4329 86.8682 97.1777 77.5036 98.873 65.2529C98.2878 67.0492 97.0869 69.4004 95.2705 72.3066C93.4743 75.1927 91.8092 76.6357 90.2754 76.6357C89.4479 76.6357 89.0443 75.8083 89.0645 74.1533C89.125 68.9665 90.901 61.6504 94.3926 52.2051C94.5339 51.8216 94.665 51.4987 94.7861 51.2363C95.0889 50.5905 95.4118 50.2676 95.7549 50.2676C96.1182 50.2676 96.431 50.2979 96.6934 50.3584C97.7428 50.5804 98.2777 51.0042 98.2979 51.6299C98.2979 51.7712 98.1566 52.2656 97.874 53.1133L96.3906 57.4424C94.0293 64.264 92.6165 69.0472 92.1523 71.792C93.5247 69.693 95.4118 66.262 97.8135 61.499C100.235 56.736 101.547 54.1628 101.749 53.7793C101.991 53.3958 102.173 53.0426 102.294 52.7197L102.536 52.084C102.778 51.5189 103.132 51.2363 103.596 51.2363Z" fill="white"/>
<defs>
<linearGradient id="paint0_linear_3_2" x1="-90.5" y1="-50" x2="132.5" y2="156.5" gradientUnits="userSpaceOnUse">
<stop stop-color="#7828D4"/>
<stop offset="1" stop-color="#B02F00"/>
</linearGradient>
</defs>
</svg>
